<svg baseProfile="full" height="2400" version="1.1" width="2681" xmlns="http://www.w3.org/2000/svg" xmlns:ev="http://www.w3.org/2001/xml-events" xmlns:xlink="http://www.w3.org/1999/xlink"><defs><marker id="id33" markerHeight="15" markerWidth="15" orient="-90" refX="9.5" refY="5"><path d="M 0 0 L 10 5 L 0 10 L 2.5 5 Z" /></marker><marker id="id34" markerHeight="15" markerWidth="15" orient="-90" refX="9.5" refY="5"><path d="M 0 0 L 10 5 L 0 10 L 2.5 5 Z" /></marker><marker id="id35" markerHeight="15" markerWidth="15" orient="-90" refX="9.5" refY="5"><path d="M 0 0 L 10 5 L 0 10 L 2.5 5 Z" /></marker><marker id="id36" markerHeight="15" markerWidth="15" orient="-90" refX="9.5" refY="5"><path d="M 0 0 L 10 5 L 0 10 L 2.5 5 Z" /></marker></defs><text fill="black" font-size="20" x="100" y="150.0">Users</text><rect fill="none" height="50" stroke="black" width="150" x="100" y="175.0" /><text fill="black" font-size="20" x="142.0" y="200.0">user_id</text><line stroke="black" stroke-width="2" x1="142.0" x2="208.0" y1="213.5" y2="213.5" /><rect fill="none" height="50" stroke="black" width="172" x="250" y="175.0" /><text fill="black" font-size="20" x="270.0" y="200.0">user_firstname</text><rect fill="none" height="50" stroke="black" width="171" x="422" y="175.0" /><text fill="black" font-size="20" x="442.0" y="200.0">user_lastname</text><rect fill="none" height="50" stroke="black" width="150" x="593" y="175.0" /><text fill="black" font-size="20" x="623.5" y="200.0">user_date</text><rect fill="none" height="50" stroke="black" width="160" x="743" y="175.0" /><text fill="black" font-size="20" x="763.0" y="200.0">user_balance</text><rect fill="none" height="50" stroke="black" width="150" x="903" y="175.0" /><text fill="black" font-size="20" x="928.5" y="200.0">user_token</text><rect fill="none" height="50" stroke="black" width="150" x="1053" y="175.0" /><text fill="black" font-size="20" x="1084.0" y="200.0">user_type</text><rect fill="none" height="50" stroke="black" width="176" x="1203" y="175.0" /><text fill="black" font-size="20" x="1223.0" y="200.0">user_password</text><rect fill="none" height="50" stroke="black" width="150" x="1379" y="175.0" /><text fill="black" font-size="20" x="1405.0" y="200.0">user_email</text><rect fill="none" height="50" stroke="black" width="150" x="1529" y="175.0" /><text fill="black" font-size="20" x="1564.0" y="200.0">user_city</text><rect fill="none" height="50" stroke="black" width="156" x="1679" y="175.0" /><text fill="black" font-size="20" x="1699.0" y="200.0">user_country</text><rect fill="none" height="50" stroke="black" width="172" x="1835" y="175.0" /><text fill="black" font-size="20" x="1855.0" y="200.0">user_firstname</text><rect fill="none" height="50" stroke="black" width="171" x="2007" y="175.0" /><text fill="black" font-size="20" x="2027.0" y="200.0">user_lastname</text><rect fill="none" height="50" stroke="black" width="153" x="2178" y="175.0" /><text fill="black" font-size="20" x="2198.0" y="200.0">user_gender</text><text fill="black" font-size="20" x="100" y="325.0">Products</text><rect fill="none" height="50" stroke="black" width="150" x="100" y="350.0" /><text fill="black" font-size="20" x="128.5" y="375.0">product_id</text><line stroke="black" stroke-width="2" x1="128.5" x2="221.5" y1="388.5" y2="388.5" /><rect fill="none" height="50" stroke="black" width="161" x="250" y="350.0" /><text fill="black" font-size="20" x="270.0" y="375.0">product_price</text><rect fill="none" height="50" stroke="black" width="219" x="411" y="350.0" /><text fill="black" font-size="20" x="431.0" y="375.0">product_descripition</text><rect fill="none" height="50" stroke="black" width="161" x="630" y="350.0" /><text fill="black" font-size="20" x="650.0" y="375.0">product_state</text><rect fill="none" height="50" stroke="black" width="172" x="791" y="350.0" /><text fill="black" font-size="20" x="811.0" y="375.0">product_image</text><text fill="black" font-size="20" x="100" y="500.0">Love</text><rect fill="none" height="50" stroke="black" width="150" x="100" y="525.0" /><text fill="black" font-size="20" x="142.0" y="550.0">user_id</text><line stroke="black" stroke-width="2" x1="142.0" x2="208.0" y1="563.5" y2="563.5" /><rect fill="none" height="50" stroke="black" width="150" x="250" y="525.0" /><text fill="black" font-size="20" x="278.5" y="550.0">product_id</text><line stroke="black" stroke-width="2" x1="278.5" x2="371.5" y1="563.5" y2="563.5" /><text fill="black" font-size="20" x="100" y="675.0">Order</text><rect fill="none" height="50" stroke="black" width="150" x="100" y="700.0" /><text fill="black" font-size="20" x="142.0" y="725.0">user_id</text><line stroke="black" stroke-width="2" x1="142.0" x2="208.0" y1="738.5" y2="738.5" /><rect fill="none" height="50" stroke="black" width="150" x="250" y="700.0" /><text fill="black" font-size="20" x="278.5" y="725.0">product_id</text><line stroke="black" stroke-width="2" x1="278.5" x2="371.5" y1="738.5" y2="738.5" /><rect fill="none" height="50" stroke="black" width="168" x="400" y="700.0" /><text fill="black" font-size="20" x="420.0" y="725.0">order_quantity</text><polyline fill="none" marker-start="url(#id33)" points="197.0,225.0 197.0,263.5 68,263.5 68,438.5 207.0,438.5 207.0,525.0" stroke="black" stroke-width="2" /><polyline fill="none" marker-start="url(#id34)" points="170.0,225.0 170.0,268.5 73,268.5 73,618.5 178.0,618.5 178.0,700.0" stroke="black" stroke-width="2" /><polyline fill="none" marker-start="url(#id35)" points="182.0,400.0 182.0,448.5 301.0,448.5 301.0,525.0" stroke="black" stroke-width="2" /><polyline fill="none" marker-start="url(#id36)" points="204.0,400.0 204.0,435.5 443,435.5 443,610.5 357.0,610.5 357.0,700.0" stroke="black" stroke-width="2" /></svg>